<?xml version="1.0" encoding="UTF-8" standalone="no"?>
<!DOCTYPE svg PUBLIC "-//W3C//DTD SVG 1.1//EN" "http://www.w3.org/Graphics/SVG/1.1/DTD/svg11.dtd">
<svg version="1.1" xmlns="http://www.w3.org/2000/svg" xmlns:xlink="http://www.w3.org/1999/xlink" preserveAspectRatio="xMidYMid meet" viewBox="0 0 250 250" width="250" height="250"><defs><path d="M134.37 11.09L138.98 11.56L143.53 12.21L148.02 13.04L152.45 14.04L156.81 15.21L161.11 16.54L165.33 18.04L169.47 19.7L173.53 21.51L177.5 23.48L181.39 25.59L185.18 27.85L188.88 30.24L192.48 32.78L195.97 35.44L199.36 38.24L202.63 41.16L205.8 44.2L208.84 47.37L211.76 50.64L214.56 54.03L217.22 57.52L219.76 61.12L222.15 64.82L224.41 68.61L226.52 72.5L228.49 76.47L230.3 80.53L231.96 84.67L233.46 88.89L234.79 93.19L235.96 97.55L236.96 101.98L237.79 106.47L238.44 111.02L238.91 115.63L239.19 120.29L239.29 125L239.19 129.71L238.91 134.37L238.44 138.98L237.79 143.53L236.96 148.02L235.96 152.45L234.79 156.81L233.46 161.11L231.96 165.33L230.3 169.47L228.49 173.53L226.52 177.5L224.41 181.39L222.15 185.18L219.76 188.88L217.22 192.48L214.56 195.97L211.76 199.36L208.84 202.63L205.8 205.8L202.63 208.84L199.36 211.76L195.97 214.56L192.48 217.22L188.88 219.76L185.18 222.15L181.39 224.41L177.5 226.52L173.53 228.49L169.47 230.3L165.33 231.96L161.11 233.46L156.81 234.79L152.45 235.96L148.02 236.96L143.53 237.79L138.98 238.44L134.37 238.91L129.71 239.19L125 239.29L120.29 239.19L115.63 238.91L111.02 238.44L106.47 237.79L101.98 236.96L97.55 235.96L93.19 234.79L88.89 233.46L84.67 231.96L80.53 230.3L76.47 228.49L72.5 226.52L68.61 224.41L64.82 222.15L61.12 219.76L57.52 217.22L54.03 214.56L50.64 211.76L47.37 208.84L44.2 205.8L41.16 202.63L38.24 199.36L35.44 195.97L32.78 192.48L30.24 188.88L27.85 185.18L25.59 181.39L23.48 177.5L21.51 173.53L19.7 169.47L18.04 165.33L16.54 161.11L15.21 156.81L14.04 152.45L13.04 148.02L12.21 143.53L11.56 138.98L11.09 134.37L10.81 129.71L10.71 125L10.81 120.29L11.09 115.63L11.56 111.02L12.21 106.47L13.04 101.98L14.04 97.55L15.21 93.19L16.54 88.89L18.04 84.67L19.7 80.53L21.51 76.47L23.48 72.5L25.59 68.61L27.85 64.82L30.24 61.12L32.78 57.52L35.44 54.03L38.24 50.64L41.16 47.37L44.2 44.2L47.37 41.16L50.64 38.24L54.03 35.44L57.52 32.78L61.12 30.24L64.82 27.85L68.61 25.59L72.5 23.48L76.47 21.51L80.53 19.7L84.67 18.04L88.89 16.54L93.19 15.21L97.55 14.04L101.98 13.04L106.47 12.21L111.02 11.56L115.63 11.09L120.29 10.81L125 10.71L129.71 10.81L134.37 11.09ZM116.48 21.35L112.28 21.77L108.14 22.36L104.05 23.11L100.02 24.02L96.05 25.09L92.14 26.31L88.3 27.67L84.53 29.18L80.84 30.83L77.22 32.62L73.69 34.54L70.23 36.59L66.87 38.77L63.6 41.08L60.42 43.5L57.33 46.05L54.35 48.71L51.48 51.48L48.71 54.35L46.05 57.33L43.5 60.42L41.08 63.6L38.77 66.87L36.59 70.23L34.54 73.69L32.62 77.22L30.83 80.84L29.18 84.53L27.67 88.3L26.31 92.14L25.09 96.05L24.02 100.02L23.11 104.05L22.36 108.14L21.77 112.28L21.35 116.48L21.09 120.72L21 125L21.09 129.28L21.35 133.52L21.77 137.72L22.36 141.86L23.11 145.95L24.02 149.98L25.09 153.95L26.31 157.86L27.67 161.7L29.18 165.47L30.83 169.16L32.62 172.78L34.54 176.31L36.59 179.77L38.77 183.13L41.08 186.4L43.5 189.58L46.05 192.67L48.71 195.65L51.48 198.52L54.35 201.29L57.33 203.95L60.42 206.5L63.6 208.92L66.87 211.23L70.23 213.41L73.69 215.46L77.22 217.38L80.84 219.17L84.53 220.82L88.3 222.33L92.14 223.69L96.05 224.91L100.02 225.98L104.05 226.89L108.14 227.64L112.28 228.23L116.48 228.65L120.72 228.91L125 229L129.28 228.91L133.52 228.65L137.72 228.23L141.86 227.64L145.95 226.89L149.98 225.98L153.95 224.91L157.86 223.69L161.7 222.33L165.47 220.82L169.16 219.17L172.78 217.38L176.31 215.46L179.77 213.41L183.13 211.23L186.4 208.92L189.58 206.5L192.67 203.95L195.65 201.29L198.52 198.52L201.29 195.65L203.95 192.67L206.5 189.58L208.92 186.4L211.23 183.13L213.41 179.77L215.46 176.31L217.38 172.78L219.17 169.16L220.82 165.47L222.33 161.7L223.69 157.86L224.91 153.95L225.98 149.98L226.89 145.95L227.64 141.86L228.23 137.72L228.65 133.52L228.91 129.28L229 125L228.91 120.72L228.65 116.48L228.23 112.28L227.64 108.14L226.89 104.05L225.98 100.02L224.91 96.05L223.69 92.14L222.33 88.3L220.82 84.53L219.17 80.84L217.38 77.22L215.46 73.69L213.41 70.23L211.23 66.87L208.92 63.6L206.5 60.42L203.95 57.33L201.29 54.35L198.52 51.48L195.65 48.71L192.67 46.05L189.58 43.5L186.4 41.08L183.13 38.77L179.77 36.59L176.31 34.54L172.78 32.62L169.16 30.83L165.47 29.18L161.7 27.67L157.86 26.31L153.95 25.09L149.98 24.02L145.95 23.11L141.86 22.36L137.72 21.77L133.52 21.35L129.28 21.09L125 21L120.72 21.09L116.48 21.35Z" id="aOtiDu5Hh"></path><path d="M128.24 58.59C129.21 58.59 130 59.38 130 60.36C130 86.57 130 163.43 130 189.64C130 190.62 129.21 191.41 128.24 191.41C126.59 191.41 123.41 191.41 121.76 191.41C120.79 191.41 120 190.62 120 189.64C120 163.43 120 86.57 120 60.36C120 59.38 120.79 58.59 121.76 58.59C123.41 58.59 126.59 58.59 128.24 58.59Z" id="h7YpgvovL"></path><path d="M58.59 128.24C58.59 129.21 59.38 130 60.36 130C86.57 130 163.43 130 189.64 130C190.62 130 191.41 129.21 191.41 128.24C191.41 126.59 191.41 123.41 191.41 121.76C191.41 120.79 190.62 120 189.64 120C163.43 120 86.57 120 60.36 120C59.38 120 58.59 120.79 58.59 121.76C58.59 123.41 58.59 126.59 58.59 128.24Z" id="eRVA5nqM"></path></defs><g><g><g><use xlink:href="#aOtiDu5Hh" opacity="1" fill="#000000" fill-opacity="1"></use></g><g><use xlink:href="#h7YpgvovL" opacity="1" fill="#088013" fill-opacity="1"></use></g><g><use xlink:href="#eRVA5nqM" opacity="1" fill="#088013" fill-opacity="1"></use></g></g></g></svg>