<?xml version="1.0" encoding="utf-8"?>
<!-- Generator: Adobe Illustrator 21.1.0, SVG Export Plug-In . SVG Version: 6.00 Build 0)  -->
<svg version="1.1" id="Layer_1" xmlns="http://www.w3.org/2000/svg" xmlns:xlink="http://www.w3.org/1999/xlink" x="0px" y="0px"
	 viewBox="0 0 250 250" style="enable-background:new 0 0 250 250;" xml:space="preserve">
<g>
	<path id="a9c8PD3r7_3_" d="M128.1,218.1c-0.1-13.5,10.9-24.5,24.4-24.6s24.5,10.9,24.6,24.4s-10.9,24.5-24.4,24.6
		C139.2,242.6,128.2,231.6,128.1,218.1z"/>
	<path d="M128.5,191.6c12.7-0.1,23-10.4,22.9-23.1c-0.1-12.7-10.4-23-23.1-22.9c-12.7,0.1-23,10.4-22.9,23.1
		C105.4,181.4,115.8,191.7,128.5,191.6z"/>
	<path d="M86,156.2c11.9,0,21.5-9.7,21.4-21.6c0-11.9-9.7-21.5-21.6-21.4s-21.5,9.7-21.4,21.6C64.4,146.6,74.1,156.2,86,156.2z"/>
	<path id="a9c8PD3r7_1_" d="M11,122.1c0-11,8.9-20,19.9-20.1c11,0,20,8.9,20.1,19.9c0,11-8.9,20-19.9,20.1C20,142,11,133.1,11,122.1
		z"/>
</g>
</svg>
