<?xml version="1.0" encoding="utf-8"?>
<!-- Generator: Adobe Illustrator 21.1.0, SVG Export Plug-In . SVG Version: 6.00 Build 0)  -->
<svg version="1.1" id="Layer_1" xmlns="http://www.w3.org/2000/svg" xmlns:xlink="http://www.w3.org/1999/xlink" x="0px" y="0px"
	 viewBox="0 0 250 250" style="enable-background:new 0 0 250 250;" xml:space="preserve">
<g>
	<path id="a9c8PD3r7_3_" d="M98.4,242.5c-13.5-0.1-24.5-11.1-24.4-24.6c0.1-13.5,11.1-24.5,24.6-24.4c13.5,0.1,24.5,11.1,24.4,24.6
		C122.9,231.6,111.9,242.6,98.4,242.5z"/>
	<path d="M122.6,191.6c-12.7-0.1-23-10.4-22.9-23.1c0.1-12.7,10.4-23,23.1-22.9c12.7,0.1,23,10.4,22.9,23.1
		C145.7,181.4,135.3,191.7,122.6,191.6z"/>
	<path d="M165.2,156.2c-11.9,0-21.5-9.7-21.4-21.6c0-11.9,9.7-21.5,21.6-21.4s21.5,9.7,21.4,21.6C186.7,146.6,177,156.2,165.2,156.2
		z"/>
	<path id="a9c8PD3r7_1_" d="M220,142c-11,0-20-9-19.9-20.1c0-11,9-20,20.1-19.9c11,0,20,9,19.9,20.1C240.1,133.1,231.1,142,220,142z
		"/>
</g>
</svg>
