<?xml version="1.0" encoding="utf-8"?>
<!-- Generator: Adobe Illustrator 21.1.0, SVG Export Plug-In . SVG Version: 6.00 Build 0)  -->
<svg version="1.1" id="Layer_1" xmlns="http://www.w3.org/2000/svg" xmlns:xlink="http://www.w3.org/1999/xlink" x="0px" y="0px"
	 viewBox="0 0 250 250" style="enable-background:new 0 0 250 250;" xml:space="preserve">
<g>
	<path id="a9c8PD3r7_1_" d="M128.1,30.1c0-13.5,10.9-24.5,24.4-24.6s24.5,10.9,24.6,24.4s-10.9,24.5-24.4,24.6
		C139.2,54.6,128.2,43.6,128.1,30.1z"/>
	<path d="M177.4,92.1c0,13.7-11.1,24.9-24.8,24.9s-24.9-11.1-24.9-24.8s11.1-24.9,24.8-24.9C166.2,67.3,177.4,78.4,177.4,92.1z"/>
	<ellipse transform="matrix(1 -1.298135e-03 1.298135e-03 1 -0.2002 0.1981)" cx="152.5" cy="154.3" rx="25.2" ry="25.2"/>
	<circle cx="152.5" cy="216.5" r="25.5"/>
</g>
</svg>
