<?xml version="1.0" encoding="utf-8"?>
<!-- Generator: Adobe Illustrator 21.1.0, SVG Export Plug-In . SVG Version: 6.00 Build 0)  -->
<svg version="1.1" id="Layer_1" xmlns="http://www.w3.org/2000/svg" xmlns:xlink="http://www.w3.org/1999/xlink" x="0px" y="0px"
	 viewBox="0 0 250 250" style="enable-background:new 0 0 250 250;" xml:space="preserve">
<g>
	<g>
		<g>
			<path id="a9c8PD3r7_4_" d="M207.7,124.8c0-11,9-20,20-20c11,0,20,9,20,20s-9,20-20,20C216.7,144.8,207.7,135.8,207.7,124.8z"/>
			<path d="M139.4,124.8c0-11,9-20,20-20c11,0,20,9,20,20s-9,20-20,20C148.3,144.8,139.4,135.8,139.4,124.8z"/>
			<path d="M71,124.8c0-11,9-20,20-20c11,0,20,9,20,20s-9,20-20,20C80,144.8,71,135.8,71,124.8z"/>
			<path id="a9c8PD3r7_1_" d="M2.7,124.8c0-11,9-20,20-20c11,0,20,9,20,20c0,11-9,20-20,20C11.7,144.8,2.7,135.8,2.7,124.8z"/>
		</g>
	</g>
</g>
</svg>
