<?xml version="1.0" encoding="utf-8"?>
<!-- Generator: Adobe Illustrator 21.1.0, SVG Export Plug-In . SVG Version: 6.00 Build 0)  -->
<svg version="1.1" id="Layer_1" xmlns="http://www.w3.org/2000/svg" xmlns:xlink="http://www.w3.org/1999/xlink" x="0px" y="0px"
	 viewBox="0 0 250 250" style="enable-background:new 0 0 250 250;" xml:space="preserve">
<g>
	<g>
		<g>
			<g>
				<path id="b15h8OtkNe" d="M74.4,126.8c0-16.6,13.4-30,30-30c16.6,0,30,13.4,30,30s-13.4,30-30,30
					C87.9,156.8,74.4,143.3,74.4,126.8z"/>
			</g>
		</g>
		<g>
			<g>
				<path id="a2QHq39gR" d="M149.4,125.8c0-22.1,17.9-40,40-40c22.1,0,40,17.9,40,40c0,22.1-17.9,40-40,40
					C167.3,165.8,149.4,147.9,149.4,125.8z"/>
			</g>
		</g>
		<g>
			<g>
				<path id="a9c8PD3r7" d="M20.7,126.8c0-11,9-20,20-20c11,0,20,9,20,20c0,11-9,20-20,20C29.7,146.8,20.7,137.8,20.7,126.8z"/>
			</g>
		</g>
	</g>
</g>
</svg>
