<?xml version="1.0" encoding="UTF-8" standalone="no"?>
<!DOCTYPE svg PUBLIC "-//W3C//DTD SVG 1.1//EN" "http://www.w3.org/Graphics/SVG/1.1/DTD/svg11.dtd">
<svg version="1.1" xmlns="http://www.w3.org/2000/svg" xmlns:xlink="http://www.w3.org/1999/xlink" preserveAspectRatio="xMidYMid meet" viewBox="0 0 250 250" width="250" height="250"><defs><path d="M134.37 11.09L138.98 11.56L143.53 12.21L148.02 13.04L152.45 14.04L156.81 15.21L161.11 16.54L165.33 18.04L169.47 19.7L173.53 21.51L177.5 23.48L181.39 25.59L185.18 27.85L188.88 30.24L192.48 32.78L195.97 35.44L199.36 38.24L202.63 41.16L205.8 44.2L208.84 47.37L211.76 50.64L214.56 54.03L217.22 57.52L219.76 61.12L222.15 64.82L224.41 68.61L226.52 72.5L228.49 76.47L230.3 80.53L231.96 84.67L233.46 88.89L234.79 93.19L235.96 97.55L236.96 101.98L237.79 106.47L238.44 111.02L238.91 115.63L239.19 120.29L239.29 125L239.19 129.71L238.91 134.37L238.44 138.98L237.79 143.53L236.96 148.02L235.96 152.45L234.79 156.81L233.46 161.11L231.96 165.33L230.3 169.47L228.49 173.53L226.52 177.5L224.41 181.39L222.15 185.18L219.76 188.88L217.22 192.48L214.56 195.97L211.76 199.36L208.84 202.63L205.8 205.8L202.63 208.84L199.36 211.76L195.97 214.56L192.48 217.22L188.88 219.76L185.18 222.15L181.39 224.41L177.5 226.52L173.53 228.49L169.47 230.3L165.33 231.96L161.11 233.46L156.81 234.79L152.45 235.96L148.02 236.96L143.53 237.79L138.98 238.44L134.37 238.91L129.71 239.19L125 239.29L120.29 239.19L115.63 238.91L111.02 238.44L106.47 237.79L101.98 236.96L97.55 235.96L93.19 234.79L88.89 233.46L84.67 231.96L80.53 230.3L76.47 228.49L72.5 226.52L68.61 224.41L64.82 222.15L61.12 219.76L57.52 217.22L54.03 214.56L50.64 211.76L47.37 208.84L44.2 205.8L41.16 202.63L38.24 199.36L35.44 195.97L32.78 192.48L30.24 188.88L27.85 185.18L25.59 181.39L23.48 177.5L21.51 173.53L19.7 169.47L18.04 165.33L16.54 161.11L15.21 156.81L14.04 152.45L13.04 148.02L12.21 143.53L11.56 138.98L11.09 134.37L10.81 129.71L10.71 125L10.81 120.29L11.09 115.63L11.56 111.02L12.21 106.47L13.04 101.98L14.04 97.55L15.21 93.19L16.54 88.89L18.04 84.67L19.7 80.53L21.51 76.47L23.48 72.5L25.59 68.61L27.85 64.82L30.24 61.12L32.78 57.52L35.44 54.03L38.24 50.64L41.16 47.37L44.2 44.2L47.37 41.16L50.64 38.24L54.03 35.44L57.52 32.78L61.12 30.24L64.82 27.85L68.61 25.59L72.5 23.48L76.47 21.51L80.53 19.7L84.67 18.04L88.89 16.54L93.19 15.21L97.55 14.04L101.98 13.04L106.47 12.21L111.02 11.56L115.63 11.09L120.29 10.81L125 10.71L129.71 10.81L134.37 11.09ZM117.77 46.27L114.62 46.59L111.51 47.05L108.43 47.63L105.4 48.33L102.42 49.15L99.48 50.08L96.59 51.13L93.76 52.29L90.98 53.56L88.26 54.94L85.61 56.41L83.01 57.99L80.48 59.67L78.02 61.44L75.63 63.31L73.31 65.27L71.07 67.31L68.91 69.44L66.83 71.66L64.83 73.95L62.92 76.32L61.09 78.77L59.36 81.28L57.72 83.87L56.18 86.53L54.73 89.25L53.39 92.03L52.15 94.87L51.01 97.77L49.99 100.73L49.07 103.73L48.27 106.78L47.59 109.89L47.02 113.03L46.58 116.22L46.26 119.44L46.07 122.7L46 126L46.07 129.3L46.26 132.56L46.58 135.78L47.02 138.97L47.59 142.11L48.27 145.22L49.07 148.27L49.99 151.27L51.01 154.23L52.15 157.13L53.39 159.97L54.73 162.75L56.18 165.47L57.72 168.13L59.36 170.72L61.09 173.23L62.92 175.68L64.83 178.05L66.83 180.34L68.91 182.56L71.07 184.69L73.31 186.73L75.63 188.69L78.02 190.56L80.48 192.33L83.01 194.01L85.61 195.59L88.26 197.06L90.98 198.44L93.76 199.71L96.59 200.87L99.48 201.92L102.42 202.85L105.4 203.67L108.43 204.37L111.51 204.95L114.62 205.41L117.77 205.73L120.96 205.93L124.18 206L127.4 205.93L130.59 205.73L133.74 205.41L136.85 204.95L139.93 204.37L142.96 203.67L145.94 202.85L148.88 201.92L151.77 200.87L154.6 199.71L157.38 198.44L160.1 197.06L162.75 195.59L165.35 194.01L167.88 192.33L170.34 190.56L172.73 188.69L175.05 186.73L177.29 184.69L179.45 182.56L181.53 180.34L183.53 178.05L185.44 175.68L187.27 173.23L189 170.72L190.64 168.13L192.18 165.47L193.63 162.75L194.97 159.97L196.21 157.13L197.35 154.23L198.37 151.27L199.29 148.27L200.09 145.22L200.77 142.11L201.34 138.97L201.78 135.78L202.1 132.56L202.29 129.3L202.36 126L202.29 122.7L202.1 119.44L201.78 116.22L201.34 113.03L200.77 109.89L200.09 106.78L199.29 103.73L198.37 100.73L197.35 97.77L196.21 94.87L194.97 92.03L193.63 89.25L192.18 86.53L190.64 83.87L189 81.28L187.27 78.77L185.44 76.32L183.53 73.95L181.53 71.66L179.45 69.44L177.29 67.31L175.05 65.27L172.73 63.31L170.34 61.44L167.88 59.67L165.35 57.99L162.75 56.41L160.1 54.94L157.38 53.56L154.6 52.29L151.77 51.13L148.88 50.08L145.94 49.15L142.96 48.33L139.93 47.63L136.85 47.05L133.74 46.59L130.59 46.27L127.4 46.07L124.18 46L120.96 46.07L117.77 46.27Z" id="c4sOVLJJhY"></path><path d="M165 125C165 147.08 147.08 165 125 165C102.92 165 85 147.08 85 125C85 102.92 102.92 85 125 85C147.08 85 165 102.92 165 125Z" id="i3F9sTODMB"></path></defs><g><g><g><use xlink:href="#c4sOVLJJhY" opacity="1" fill="#000000" fill-opacity="1"></use></g><g><use xlink:href="#i3F9sTODMB" opacity="1" fill="#088013" fill-opacity="1"></use></g></g></g></svg>