<?xml version="1.0" encoding="UTF-8" standalone="no"?>
<!DOCTYPE svg PUBLIC "-//W3C//DTD SVG 1.1//EN" "http://www.w3.org/Graphics/SVG/1.1/DTD/svg11.dtd">
<svg version="1.1" xmlns="http://www.w3.org/2000/svg" xmlns:xlink="http://www.w3.org/1999/xlink" preserveAspectRatio="xMidYMid meet" viewBox="0 0 250 250" width="250" height="250"><defs><path d="M155 117.19C155 133.74 141.56 147.19 125 147.19C108.44 147.19 95 133.74 95 117.19C95 100.63 108.44 87.19 125 87.19C141.56 87.19 155 100.63 155 117.19Z" id="b15h8OtkNe"></path><path d="M164.06 202.19C164.06 224.26 146.14 242.19 124.06 242.19C101.99 242.19 84.06 224.26 84.06 202.19C84.06 180.11 101.99 162.19 124.06 162.19C146.14 162.19 164.06 180.11 164.06 202.19Z" id="a2QHq39gR"></path><path d="M145 53.45C145 64.49 136.04 73.45 125 73.45C113.96 73.45 105 64.49 105 53.45C105 42.42 113.96 33.45 125 33.45C136.04 33.45 145 42.42 145 53.45Z" id="a9c8PD3r7"></path></defs><g><g><g><use xlink:href="#b15h8OtkNe" opacity="1" fill="#000000" fill-opacity="1"></use></g><g><use xlink:href="#a2QHq39gR" opacity="1" fill="#000000" fill-opacity="1"></use></g><g><use xlink:href="#a9c8PD3r7" opacity="1" fill="#000000" fill-opacity="1"></use></g></g></g></svg>