<?xml version="1.0" encoding="UTF-8" standalone="no"?>
<!DOCTYPE svg PUBLIC "-//W3C//DTD SVG 1.1//EN" "http://www.w3.org/Graphics/SVG/1.1/DTD/svg11.dtd">
<svg version="1.1" xmlns="http://www.w3.org/2000/svg" xmlns:xlink="http://www.w3.org/1999/xlink" preserveAspectRatio="xMidYMid meet" viewBox="0 0 250 400" width="250" height="400"><defs><path d="M155 175C155 191.56 141.56 205 125 205C108.44 205 95 191.56 95 175C95 158.44 108.44 145 125 145C141.56 145 155 158.44 155 175Z" id="dGh8HmNop"></path><path d="M165 310C165 332.08 147.08 350 125 350C102.92 350 85 332.08 85 310C85 287.92 102.92 270 125 270C147.08 270 165 287.92 165 310Z" id="a7kozEjZe"></path><path d="M145 62.5C145 73.54 136.04 82.5 125 82.5C113.96 82.5 105 73.54 105 62.5C105 51.46 113.96 42.5 125 42.5C136.04 42.5 145 51.46 145 62.5Z" id="a1vxrLd2el"></path></defs><g><g><g><use xlink:href="#dGh8HmNop" opacity="1" fill="#000000" fill-opacity="1"></use></g><g><use xlink:href="#a7kozEjZe" opacity="1" fill="#000000" fill-opacity="1"></use></g><g><use xlink:href="#a1vxrLd2el" opacity="1" fill="#000000" fill-opacity="1"></use></g></g></g></svg>